<svg width="142" height="36" viewBox="0 0 142 36" xmlns="http://www.w3.org/2000/svg" xmlns:xlink="http://www.w3.org/1999/xlink"><title>Logo</title><defs><path id="a" d="M10.479 11.987V.285H.049v11.702h10.43z"/></defs><g fill="none" fill-rule="evenodd"><path fill="#9C6" d="M14.856 35.843h5.373V19.676h-5.373z"/><path fill="#9C6" d="M9.767 30.371h16.166V25H9.767z"/><path fill="#069" d="M12.487 4.923L0 25.28v5.053h8.908v-5.199H6.462L18.755 4.923zm16.553 7.443v-1.272c-.942-.24-2.191-.504-3.791-.504-2.367 0-3.681 1.052-3.681 2.608v.044c0 1.621 1.533 2.563 3.242 2.563 2.28 0 4.23-1.402 4.23-3.44m-8.612.943v-.044c0-2.323 1.994-3.638 4.886-3.638 1.556 0 2.63.197 3.704.482v-.482c0-2.257-1.38-3.418-3.681-3.418-1.36 0-2.477.372-3.507.898l-.394-.942c1.227-.57 2.432-.964 3.966-.964 1.512 0 2.718.416 3.528 1.227.745.745 1.14 1.775 1.14 3.155v6.969h-1.052v-1.863c-.767 1.074-2.148 2.125-4.273 2.125-2.082 0-4.317-1.183-4.317-3.505m20.6-3.2v-.044c0-1.6-1.25-2.717-2.87-2.717-1.622 0-2.85 1.118-2.85 2.717v.044c0 1.622 1.228 2.717 2.85 2.717 1.62 0 2.87-1.117 2.87-2.717m-8.458 8.766l1.139-2.499c1.206.68 2.41 1.074 3.966 1.074 2.28 0 3.353-1.096 3.353-3.199v-.57c-.985 1.183-2.06 1.907-3.835 1.907-2.739 0-5.215-1.995-5.215-5.479v-.044c0-3.506 2.52-5.478 5.215-5.478 1.819 0 2.893.767 3.792 1.753V4.805h3.33V13.9c0 2.103-.504 3.637-1.49 4.623-1.095 1.096-2.782 1.578-5.062 1.578-1.906 0-3.704-.439-5.193-1.227m21.827-8.13V10.7c0-1.731-1.249-3.244-3.09-3.244-1.906 0-3.046 1.47-3.046 3.2v.044c0 1.731 1.25 3.243 3.09 3.243 1.907 0 3.046-1.468 3.046-3.2m-9.423 0V10.7c0-3.375 2.718-6.114 6.377-6.114 3.638 0 6.334 2.695 6.334 6.07v.044c0 3.375-2.718 6.114-6.377 6.114-3.638 0-6.334-2.695-6.334-6.07m22.661 0V10.7c0-1.731-1.25-3.244-3.09-3.244-1.907 0-3.046 1.47-3.046 3.2v.044c0 1.731 1.25 3.243 3.09 3.243 1.906 0 3.046-1.468 3.046-3.2m-9.423 0V10.7c0-3.375 2.717-6.114 6.376-6.114 3.638 0 6.334 2.695 6.334 6.07v.044c0 3.375-2.718 6.114-6.377 6.114-3.638 0-6.333-2.695-6.333-6.07m22.332-.044v-.044c0-1.95-1.293-3.243-2.85-3.243-1.555 0-2.87 1.27-2.87 3.243v.044c0 1.95 1.315 3.243 2.87 3.243 1.557 0 2.85-1.293 2.85-3.243m-9.05 0v-.044c0-3.922 2.563-6.07 5.346-6.07 1.776 0 2.871.811 3.66 1.753V.554h3.33V16.55H80.5v-1.687c-.811 1.095-1.929 1.906-3.66 1.906-2.74 0-5.347-2.147-5.347-6.07m14.224.308v-.044c0-3.134 2.498-5.851 5.697-5.851 2.104 0 3.419.965 4.47 2.06l-.766.789c-.965-.986-2.06-1.84-3.726-1.84-2.541 0-4.514 2.125-4.514 4.798v.044c0 2.695 2.038 4.842 4.602 4.842 1.578 0 2.805-.81 3.748-1.862l.744.657c-1.14 1.293-2.498 2.213-4.558 2.213-3.22 0-5.697-2.673-5.697-5.806m20.096 1.359v-1.272c-.942-.24-2.191-.504-3.79-.504-2.367 0-3.682 1.052-3.682 2.608v.044c0 1.621 1.533 2.563 3.243 2.563 2.28 0 4.23-1.402 4.23-3.44m-8.613.943v-.044c0-2.323 1.994-3.638 4.887-3.638 1.556 0 2.63.197 3.703.482v-.482c0-2.257-1.38-3.418-3.681-3.418-1.359 0-2.476.372-3.507.898l-.394-.942c1.227-.57 2.432-.964 3.967-.964 1.512 0 2.717.416 3.528 1.227.745.745 1.139 1.775 1.139 3.155v6.969h-1.052v-1.863c-.767 1.074-2.147 2.125-4.273 2.125-2.082 0-4.317-1.183-4.317-3.505m11.967-1.096V5.375h1.073v6.64c0 2.3 1.293 3.812 3.55 3.812 2.192 0 3.88-1.665 3.88-3.988V5.375h1.073V16.55h-1.074v-2.082c-.745 1.315-1.994 2.345-4.032 2.345-2.827 0-4.47-1.929-4.47-4.602m11.812 2.937l.636-.854c1.227.942 2.586 1.467 4.011 1.467 1.511 0 2.695-.832 2.695-2.125v-.044c0-1.315-1.402-1.797-2.959-2.235-1.818-.526-3.834-1.073-3.834-3.068v-.043c0-1.798 1.512-3.09 3.681-3.09 1.337 0 2.849.482 3.967 1.227l-.57.898c-1.03-.68-2.257-1.117-3.44-1.117-1.534 0-2.542.832-2.542 1.95v.044c0 1.25 1.512 1.71 3.111 2.17 1.797.503 3.682 1.161 3.682 3.133v.043c0 1.995-1.71 3.266-3.857 3.266-1.622 0-3.397-.657-4.58-1.622"/><g transform="translate(130.708 4.827)"><mask id="b" fill="#fff"><use xlink:href="#a"/></mask><path d="M9.317 5.61c-.153-2.257-1.446-4.34-4.01-4.34-2.213 0-3.922 1.863-4.12 4.34h8.13zm-9.269.547v-.043c0-3.243 2.28-5.83 5.303-5.83 3.133 0 5.128 2.543 5.128 5.852 0 .197 0 .263-.022.438h-9.27c.198 2.783 2.192 4.404 4.383 4.404 1.731 0 2.914-.767 3.835-1.753l.745.658c-1.14 1.227-2.476 2.104-4.624 2.104-2.936 0-5.478-2.345-5.478-5.83z" fill="#069" mask="url(#b)"/></g></g></svg>