<svg id="Layer_1" xmlns="http://www.w3.org/2000/svg" viewBox="0 0 342.2 63"><path d="M81 20.2h14.5c8 0 12.5 4.6 12.5 11.1C108 38 103.5 43 95.5 43h-7.9v11H81V20.2zm6.6 5.3v12.1H95c4.3 0 6.4-2.6 6.4-6.2 0-3.5-2.2-5.9-6.4-5.9h-7.4zm33.5 4c7.6 0 12.7 4.6 12.7 12.6 0 7.8-5.3 12.6-12.7 12.6-7.6 0-12.7-4.6-12.7-12.6 0-7.9 5.3-12.6 12.7-12.6zm0 20.3c3.7 0 6.1-3 6.1-7.7 0-4.9-2.4-7.7-6.1-7.7-3.7 0-6.2 2.9-6.2 7.7 0 4.7 2.4 7.7 6.2 7.7zM143 63h-6.3V30.1h6v3.4h.2c1.4-2.6 4.2-4 7.8-4 6 0 10.8 4.3 10.8 12.4 0 8-5 12.7-11.2 12.7-3.5 0-6.1-1.4-7.5-4h-.2c.3 3.1.3 5.9.3 7.6V63zm6.1-28.7c-3.5 0-6 2.8-6.1 7.4v.3c0 4.8 2.5 7.7 6.1 7.7 3.5 0 6-3.1 6-7.9-.1-4.8-2.5-7.5-6-7.5zm15.5-4.2h6.3v13.7c0 4.4 1.9 5.9 4.7 5.9 3.1 0 5.4-2.6 5.4-7V30.1h6.3V54h-6v-3.4h-.3c-1.4 2.6-3.9 4-7.3 4-4.9 0-9.2-2.6-9.2-10V30.1zm26.4-12h6.3V54H191V18.1zm17.9 22.4l4.6-.7c2.6-.4 3-.8 3-1.9 0-2.4-1.3-4-4.3-4s-4.5 1.5-4.7 3.9h-5.9c.3-5.3 4.7-8.3 10.6-8.3 7.1 0 10.6 3 10.6 8.7V54h-6v-2.8h-.3c-1.4 2.2-4.1 3.4-7.6 3.4-5.3 0-8.1-2.7-8.1-6.8s2.4-6.4 8.1-7.3zm7.7 3.8v-2.1c-.4.6-1.3.9-2.4 1.1l-3.7.6c-2.6.4-3.5 1.6-3.5 3.2 0 1.9 1.3 3 3.7 3 3 .1 5.9-1.8 5.9-5.8zm10.1-14.2h6v3.6h.1c1.2-2.6 3.3-4.2 6.4-4.2 1 0 2.1.1 3.3 1l-1.3 5.4c-1.1-.5-2-.8-2.9-.8-3.6 0-5.3 3.2-5.3 7.5V54h-6.3V30.1zm18.5-9.9h14.5c8 0 12.5 4.6 12.5 11.1 0 6.7-4.5 11.6-12.5 11.6h-7.9v11h-6.6V20.2zm6.6 5.3v12.1h7.4c4.3 0 6.4-2.6 6.4-6.2 0-3.5-2.2-5.9-6.4-5.9h-7.4zm28.7 15l4.6-.7c2.6-.4 3-.8 3-1.9 0-2.4-1.3-4-4.3-4-2.9 0-4.5 1.5-4.7 3.9h-5.9c.3-5.3 4.7-8.3 10.6-8.3 7.1 0 10.6 3 10.6 8.7V54h-6v-2.8h-.3c-1.4 2.2-4.1 3.4-7.6 3.4-5.3 0-8.1-2.7-8.1-6.8s2.4-6.4 8.1-7.3zm7.7 3.8v-2.1c-.4.6-1.3.9-2.4 1.1l-3.7.6c-2.6.4-3.5 1.6-3.5 3.2 0 1.9 1.3 3 3.7 3 3 .1 5.9-1.8 5.9-5.8zm37.7 2.8c0 2.5 2.6 3.3 5 3.3 3.3 0 5.1-1.1 5.1-3 0-1.7-1.2-2.3-3.5-2.7L328 44c-4.1-.6-7.5-2.3-7.5-6.8 0-5.1 4.5-7.8 10.5-7.8s10.4 2.4 10.4 7.3h-5.8c0-2.2-2.1-3.1-4.7-3.1s-4.4 1-4.4 2.8c0 1.5 1 2.3 3.8 2.7l4.3.7c3.9.6 7.5 2.2 7.5 6.8 0 5.4-4.7 8-11.3 8-6.4 0-10.9-2.4-10.9-7.5h6zm-30.9-17h7.1l5.8 17.2 5.6-17.2h6.4l-8.8 24.6c-1.9 5.6-4 8.3-10.2 8.3h-3.1v-5l1.8-.1c4.8 0 4.8-3.8 4.8-3.8l-9.4-24z" fill="#404040"/><path d="M0 0v63h17.9v-9h-9V9h9V0zm45 0v9h8.9v27H45v9h18V0z" fill="#36dfba"/></svg>